<svg width="66" height="66" viewBox="0 0 66 66" fill="none" xmlns="http://www.w3.org/2000/svg">
<path d="M3 27C5.34 15.552 14.01 6.39 25.218 3.27C26.16 3.009 26.628 2.877 26.883 3.156C27.138 3.438 26.949 3.9 26.577 4.83L24 10.5M39 3C50.448 5.34 59.61 14.01 62.73 25.218C62.991 26.16 63.123 26.628 62.844 26.883C62.562 27.138 62.1 26.949 61.17 26.577L55.5 24M63 39C60.66 50.448 51.99 59.61 40.782 62.73C39.84 62.991 39.372 63.123 39.117 62.844C38.862 62.562 39.051 62.1 39.423 61.17L42 55.5M27 63C15.552 60.66 6.39 51.99 3.27 40.782C3.009 39.84 2.877 39.372 3.156 39.117C3.438 38.862 3.9 39.051 4.83 39.423L10.5 42" stroke="#FFB000" stroke-width="4.5" stroke-linecap="round" stroke-linejoin="round"/>
<g filter="url(#filter0_i_296_3230)">
<path d="M21.3555 30.3945L32.352 15.5717C33.2137 14.413 34.8234 15.1335 34.8234 16.6772V28.1504C34.8234 29.0763 35.4559 29.8243 36.2351 29.8243H41.5849C42.8004 29.8243 43.4476 31.5238 42.6446 32.6074L31.648 47.4283C30.7863 48.587 29.1766 47.8665 29.1766 46.3228V34.8496C29.1766 33.9237 28.5441 33.1757 27.7649 33.1757H22.4133C21.1978 33.1757 20.5525 31.4762 21.3555 30.3945Z" fill="#FFB000"/>
</g>
<defs>
<filter id="filter0_i_296_3230" x="21" y="15" width="21.9996" height="35" filterUnits="userSpaceOnUse" color-interpolation-filters="sRGB">
<feFlood flood-opacity="0" result="BackgroundImageFix"/>
<feBlend mode="normal" in="SourceGraphic" in2="BackgroundImageFix" result="shape"/>
<feColorMatrix in="SourceAlpha" type="matrix" values="0 0 0 0 0 0 0 0 0 0 0 0 0 0 0 0 0 0 127 0" result="hardAlpha"/>
<feOffset dy="2"/>
<feGaussianBlur stdDeviation="1.4"/>
<feComposite in2="hardAlpha" operator="arithmetic" k2="-1" k3="1"/>
<feColorMatrix type="matrix" values="0 0 0 0 0.775 0 0 0 0 0.543906 0 0 0 0 0.0290625 0 0 0 1 0"/>
<feBlend mode="normal" in2="shape" result="effect1_innerShadow_296_3230"/>
</filter>
</defs>
</svg>
