<svg width="61" height="60" viewBox="0 0 61 60" fill="none" xmlns="http://www.w3.org/2000/svg">
<g filter="url(#filter0_i_296_3223)">
<path d="M22.8587 29.0435C20.0912 29.0435 17.4371 27.9441 15.4802 25.9872C13.5233 24.0303 12.4239 21.3762 12.4239 18.6087V10.2609C12.4239 9.70737 12.6438 9.17655 13.0352 8.78517C13.4265 8.39379 13.9574 8.17391 14.5109 8.17391H16.5978C17.1513 8.17391 17.6821 7.95404 18.0735 7.56266C18.4649 7.17128 18.6848 6.64045 18.6848 6.08696C18.6848 5.53346 18.4649 5.00264 18.0735 4.61126C17.6821 4.21987 17.1513 4 16.5978 4H14.5109C12.8504 4 11.2579 4.65963 10.0838 5.83377C8.90963 7.00791 8.25 8.60038 8.25 10.2609V18.6087C8.25268 20.9664 8.82761 23.2882 9.92541 25.3748C11.0232 27.4613 12.6111 29.2502 14.5526 30.5878C16.4199 32.2308 17.9339 34.236 19.003 36.4817C20.072 38.7274 20.6738 41.1669 20.7717 43.6522C20.7717 47.5266 22.3109 51.2424 25.0505 53.9821C27.7902 56.7217 31.506 58.2608 35.3804 58.2608C39.2549 58.2608 42.9707 56.7217 45.7103 53.9821C48.45 51.2424 49.9891 47.5266 49.9891 43.6522V41.273C51.9564 40.7651 53.6709 39.5571 54.8112 37.8754C55.9516 36.1938 56.4395 34.154 56.1834 32.1384C55.9274 30.1228 54.9451 28.2698 53.4206 26.9266C51.896 25.5835 49.934 24.8425 47.9022 24.8425C45.8704 24.8425 43.9083 25.5835 42.3838 26.9266C40.8592 28.2698 39.8769 30.1228 39.6209 32.1384C39.3649 34.154 39.8527 36.1938 40.9931 37.8754C42.1334 39.5571 43.8479 40.7651 45.8152 41.273V43.6522C45.8152 46.4196 44.7158 49.0738 42.7589 51.0307C40.802 52.9876 38.1479 54.0869 35.3804 54.0869C32.613 54.0869 29.9588 52.9876 28.0019 51.0307C26.045 49.0738 24.9456 46.4196 24.9456 43.6522C25.0489 41.1638 25.6571 38.7225 26.7335 36.4766C27.8098 34.2307 29.3316 32.2271 31.2065 30.5878C33.1403 29.2456 34.7201 27.4546 35.8105 25.3684C36.9008 23.2821 37.4694 20.9627 37.4674 18.6087V10.2609C37.4674 8.60038 36.8078 7.00791 35.6336 5.83377C34.4595 4.65963 32.867 4 31.2065 4H29.1196C28.5661 4 28.0352 4.21987 27.6439 4.61126C27.2525 5.00264 27.0326 5.53346 27.0326 6.08696C27.0326 6.64045 27.2525 7.17128 27.6439 7.56266C28.0352 7.95404 28.5661 8.17391 29.1196 8.17391H31.2065C31.76 8.17391 32.2908 8.39379 32.6822 8.78517C33.0736 9.17655 33.2935 9.70737 33.2935 10.2609V18.6087C33.2935 19.979 33.0236 21.3359 32.4992 22.6019C31.9748 23.8679 31.2062 25.0182 30.2372 25.9872C29.2682 26.9561 28.1179 27.7248 26.8519 28.2492C25.5859 28.7736 24.229 29.0435 22.8587 29.0435ZM47.9022 37.3913C46.7952 37.3913 45.7335 36.9515 44.9508 36.1688C44.168 35.386 43.7282 34.3244 43.7282 33.2174C43.7282 32.1104 44.168 31.0487 44.9508 30.266C45.7335 29.4832 46.7952 29.0435 47.9022 29.0435C49.0092 29.0435 50.0708 29.4832 50.8536 30.266C51.6363 31.0487 52.0761 32.1104 52.0761 33.2174C52.0761 34.3244 51.6363 35.386 50.8536 36.1688C50.0708 36.9515 49.0092 37.3913 47.9022 37.3913Z" fill="#C71C3A"/>
<path d="M38.2873 3.33988C37.1348 2.35342 35.7662 1.65219 34.2923 1.29295C32.8184 0.933706 31.2806 0.926549 29.8034 1.27206C26.8337 1.9223 24.2382 3.71282 22.5757 6.25803C20.9223 3.72107 18.3421 1.93155 15.3866 1.27206C13.9161 0.918831 12.3839 0.90944 10.9091 1.24461C9.4344 1.57978 8.05679 2.25049 6.88339 3.2046C3.82996 5.87152 2.14864 11.7851 4.06186 17.776C4.27831 18.4382 4.53598 19.0824 4.83488 19.7086C4.91219 19.8542 4.98305 20.0023 5.04746 20.1531C10.0141 30.2796 21.4935 35.6135 21.9959 35.8647C22.1826 35.9551 22.3876 36.0014 22.595 36C22.8024 36.0014 23.0074 35.9551 23.1941 35.8647C23.6772 35.6521 35.2725 30.3569 40.2005 20.1144L40.3551 19.7859C40.6605 19.1288 40.9246 18.4524 41.1475 17.7567C42.9641 11.9591 41.3021 6.04545 38.2873 3.33988ZM37.6882 18.665C37.4177 19.2718 37.1085 19.858 36.7606 20.4236H30.3639C30.0456 20.422 29.7326 20.3417 29.4528 20.19C29.1729 20.0383 28.9349 19.8198 28.7598 19.554L26.7307 16.5392L22.4211 25.1584C22.285 25.4313 22.0862 25.6681 21.841 25.8495C21.5958 26.0309 21.3111 26.1517 21.0103 26.2019H20.7011C20.4454 26.2009 20.1925 26.1491 19.957 26.0496C19.7214 25.9501 19.508 25.8048 19.329 25.6222L14.0918 20.4043H8.46808C8.11249 19.7781 7.7904 19.134 7.5018 18.4717C7.20266 17.8495 6.95699 17.203 6.76743 16.5392H14.9035C15.1578 16.5377 15.4099 16.5865 15.6454 16.6826C15.8808 16.7788 16.095 16.9205 16.2756 17.0996L20.1407 20.9647L24.7401 11.7658C24.893 11.4612 25.1237 11.2025 25.4087 11.0158C25.6938 10.8292 26.0232 10.7212 26.3635 10.7029C26.6994 10.6826 27.0348 10.7504 27.3364 10.8995C27.6381 11.0487 27.8956 11.274 28.0835 11.5532L31.3688 16.5005H38.5192C38.3079 17.2478 38.0309 17.9693 37.6882 18.665Z" fill="#C71C3A"/>
<path d="M37.6882 18.665C37.4177 19.2718 37.1085 19.858 36.7606 20.4236H30.3639C30.0456 20.422 29.7326 20.3417 29.4528 20.19C29.1729 20.0383 28.9349 19.8198 28.7598 19.554L26.7307 16.5392L22.4211 25.1584C22.285 25.4313 22.0862 25.6681 21.841 25.8495C21.5958 26.0309 21.3111 26.1517 21.0103 26.2019H20.7011C20.4454 26.2009 20.1925 26.1491 19.957 26.0496C19.7214 25.9501 19.508 25.8048 19.329 25.6222L14.0918 20.4043H8.46808C8.11249 19.7781 7.7904 19.134 7.5018 18.4717C7.20266 17.8495 6.95699 17.203 6.76743 16.5392H14.9035C15.1578 16.5377 15.4099 16.5865 15.6454 16.6826C15.8808 16.7788 16.095 16.9205 16.2756 17.0996L20.1407 20.9647L24.7401 11.7658C24.893 11.4612 25.1237 11.2025 25.4087 11.0158C25.6938 10.8292 26.0232 10.7212 26.3635 10.7029C26.6994 10.6826 27.0348 10.7504 27.3364 10.8995C27.6381 11.0487 27.8956 11.274 28.0835 11.5532L31.3688 16.5005H38.5192C38.3079 17.2478 38.0309 17.9693 37.6882 18.665Z" fill="white"/>
</g>
<defs>
<filter id="filter0_i_296_3223" x="0.25" y="0" width="60" height="64" filterUnits="userSpaceOnUse" color-interpolation-filters="sRGB">
<feFlood flood-opacity="0" result="BackgroundImageFix"/>
<feBlend mode="normal" in="SourceGraphic" in2="BackgroundImageFix" result="shape"/>
<feColorMatrix in="SourceAlpha" type="matrix" values="0 0 0 0 0 0 0 0 0 0 0 0 0 0 0 0 0 0 127 0" result="hardAlpha"/>
<feOffset dy="4"/>
<feGaussianBlur stdDeviation="2"/>
<feComposite in2="hardAlpha" operator="arithmetic" k2="-1" k3="1"/>
<feColorMatrix type="matrix" values="0 0 0 0 0 0 0 0 0 0 0 0 0 0 0 0 0 0 0.25 0"/>
<feBlend mode="normal" in2="shape" result="effect1_innerShadow_296_3223"/>
</filter>
</defs>
</svg>
