<svg width="61" height="60" viewBox="0 0 61 60" fill="none" xmlns="http://www.w3.org/2000/svg">
<path d="M3 58L41.5 19.5ZM7.0425 31.9575L11.25 27.75L15.4575 31.9575C17.2544 33.7614 18.2632 36.2039 18.2632 38.75C18.2632 41.2961 17.2544 43.7386 15.4575 45.5425L11.25 49.75L7.0425 45.5425C5.24565 43.7386 4.23678 41.2961 4.23678 38.75C4.23678 36.2039 5.24565 33.7614 7.0425 31.9575ZM18.0425 20.9575L22.25 16.75L26.4575 20.9575C28.2544 22.7614 29.2632 25.2039 29.2632 27.75C29.2632 30.2961 28.2544 32.7386 26.4575 34.5425L22.25 38.75L18.0425 34.5425C16.2456 32.7386 15.2368 30.2961 15.2368 27.75C15.2368 25.2039 16.2456 22.7614 18.0425 20.9575ZM29.0425 9.9575L33.25 5.75L37.4575 9.9575C39.2544 11.7614 40.2632 14.2039 40.2632 16.75C40.2632 19.2961 39.2544 21.7386 37.4575 23.5425L33.25 27.75L29.0425 23.5425C27.2456 21.7386 26.2368 19.2961 26.2368 16.75C26.2368 14.2039 27.2456 11.7614 29.0425 9.9575ZM52.5 3H58V8.5C58 11.4174 56.8411 14.2153 54.7782 16.2782C52.7153 18.3411 49.9174 19.5 47 19.5H41.5V14C41.5 11.0826 42.6589 8.28473 44.7218 6.22183C46.7847 4.15893 49.5826 3 52.5 3Z" fill="#09A735"/>
<path d="M3 58L41.5 19.5M41.5 19.5H47C49.9174 19.5 52.7153 18.3411 54.7782 16.2782C56.8411 14.2153 58 11.4174 58 8.5V3H52.5C49.5826 3 46.7847 4.15893 44.7218 6.22183C42.6589 8.28473 41.5 11.0826 41.5 14V19.5ZM7.0425 31.9575L11.25 27.75L15.4575 31.9575C17.2544 33.7614 18.2632 36.2039 18.2632 38.75C18.2632 41.2961 17.2544 43.7386 15.4575 45.5425L11.25 49.75L7.0425 45.5425C5.24565 43.7386 4.23678 41.2961 4.23678 38.75C4.23678 36.2039 5.24565 33.7614 7.0425 31.9575ZM18.0425 20.9575L22.25 16.75L26.4575 20.9575C28.2544 22.7614 29.2632 25.2039 29.2632 27.75C29.2632 30.2961 28.2544 32.7386 26.4575 34.5425L22.25 38.75L18.0425 34.5425C16.2456 32.7386 15.2368 30.2961 15.2368 27.75C15.2368 25.2039 16.2456 22.7614 18.0425 20.9575ZM29.0425 9.9575L33.25 5.75L37.4575 9.9575C39.2544 11.7614 40.2632 14.2039 40.2632 16.75C40.2632 19.2961 39.2544 21.7386 37.4575 23.5425L33.25 27.75L29.0425 23.5425C27.2456 21.7386 26.2368 19.2961 26.2368 16.75C26.2368 14.2039 27.2456 11.7614 29.0425 9.9575Z" stroke="white" stroke-width="2" stroke-linecap="round" stroke-linejoin="round"/>
<g filter="url(#filter0_i_296_3192)">
<path d="M29.0425 45.5424L33.25 49.7499L29.0425 53.9574C27.2386 55.7543 24.7961 56.7631 22.25 56.7631C19.7039 56.7631 17.2614 55.7543 15.4575 53.9574L11.25 49.7499L15.4575 45.5424C17.2614 43.7456 19.7039 42.7367 22.25 42.7367C24.7961 42.7367 27.2386 43.7456 29.0425 45.5424ZM40.0425 34.5424L44.25 38.7499L40.0425 42.9574C38.2386 44.7543 35.7961 45.7631 33.25 45.7631C30.7039 45.7631 28.2614 44.7543 26.4575 42.9574L22.25 38.7499L26.4575 34.5424C28.2614 32.7456 30.7039 31.7367 33.25 31.7367C35.7961 31.7367 38.2386 32.7456 40.0425 34.5424ZM51.0425 23.5424L55.25 27.7499L51.0425 31.9574C49.2386 33.7543 46.7961 34.7631 44.25 34.7631C41.7039 34.7631 39.2614 33.7543 37.4575 31.9574L33.25 27.7499L37.4575 23.5424C39.2614 21.7456 41.7039 20.7367 44.25 20.7367C46.7961 20.7367 49.2386 21.7456 51.0425 23.5424Z" fill="#09A735"/>
</g>
<path d="M29.0425 45.5424L33.25 49.7499L29.0425 53.9574C27.2386 55.7543 24.7961 56.7631 22.25 56.7631C19.7039 56.7631 17.2614 55.7543 15.4575 53.9574L11.25 49.7499L15.4575 45.5424C17.2614 43.7456 19.7039 42.7367 22.25 42.7367C24.7961 42.7367 27.2386 43.7456 29.0425 45.5424ZM40.0425 34.5424L44.25 38.7499L40.0425 42.9574C38.2386 44.7543 35.7961 45.7631 33.25 45.7631C30.7039 45.7631 28.2614 44.7543 26.4575 42.9574L22.25 38.7499L26.4575 34.5424C28.2614 32.7456 30.7039 31.7367 33.25 31.7367C35.7961 31.7367 38.2386 32.7456 40.0425 34.5424ZM51.0425 23.5424L55.25 27.7499L51.0425 31.9574C49.2386 33.7543 46.7961 34.7631 44.25 34.7631C41.7039 34.7631 39.2614 33.7543 37.4575 31.9574L33.25 27.7499L37.4575 23.5424C39.2614 21.7456 41.7039 20.7367 44.25 20.7367C46.7961 20.7367 49.2386 21.7456 51.0425 23.5424Z" stroke="white" stroke-width="2" stroke-linecap="round" stroke-linejoin="round"/>
<defs>
<filter id="filter0_i_296_3192" x="10.25" y="19.7367" width="46" height="42.0265" filterUnits="userSpaceOnUse" color-interpolation-filters="sRGB">
<feFlood flood-opacity="0" result="BackgroundImageFix"/>
<feBlend mode="normal" in="SourceGraphic" in2="BackgroundImageFix" result="shape"/>
<feColorMatrix in="SourceAlpha" type="matrix" values="0 0 0 0 0 0 0 0 0 0 0 0 0 0 0 0 0 0 127 0" result="hardAlpha"/>
<feOffset dy="4"/>
<feGaussianBlur stdDeviation="2"/>
<feComposite in2="hardAlpha" operator="arithmetic" k2="-1" k3="1"/>
<feColorMatrix type="matrix" values="0 0 0 0 0 0 0 0 0 0 0 0 0 0 0 0 0 0 0.25 0"/>
<feBlend mode="normal" in2="shape" result="effect1_innerShadow_296_3192"/>
</filter>
</defs>
</svg>
