<svg width="61" height="61" viewBox="0 0 61 61" fill="none" xmlns="http://www.w3.org/2000/svg">
<g filter="url(#filter0_i_314_1629)">
<path d="M31.6115 7.56854C30.7975 7.12453 29.8136 7.12453 28.9996 7.56854L4.69685 20.8246C2.80139 21.8585 2.80187 24.5803 4.69769 25.6136L9.79248 28.3902C10.6691 28.868 11.2146 29.7866 11.2146 30.7849V43.9103C11.2146 44.9081 11.7596 45.8263 12.6355 46.3043L28.9991 55.2342C29.8134 55.6785 30.7977 55.6785 31.612 55.2342L47.9756 46.3043C48.8515 45.8263 49.3965 44.9081 49.3965 43.9103V30.7849C49.3965 29.7866 49.942 28.868 50.8186 28.3902V28.3902C52.636 27.3998 54.851 28.7152 54.851 30.7849V42.3107C54.851 43.817 56.072 45.038 57.5783 45.038V45.038C59.0845 45.038 60.3055 43.817 60.3055 42.3107V24.8388C60.3055 23.8408 59.7604 22.9225 58.8842 22.4446L31.6115 7.56854ZM44.5161 20.8256C46.4111 21.8593 46.4112 24.5804 44.5161 25.6141L31.6115 32.6529C30.7975 33.097 29.8136 33.097 28.9996 32.6529L16.095 25.6141C14.1999 24.5804 14.1999 21.8593 16.095 20.8256L28.9996 13.7867C29.8136 13.3427 30.7975 13.3427 31.6115 13.7867L44.5161 20.8256ZM43.9419 40.6897C43.9419 41.6888 43.3956 42.608 42.5179 43.0854L31.6088 49.0199C30.7962 49.462 29.8149 49.462 29.0023 49.0199L18.0932 43.0854C17.2155 42.608 16.6692 41.6888 16.6692 40.6897V36.7344C16.6692 34.6638 18.886 33.3484 20.7034 34.3407L28.9986 38.8699C29.8131 39.3146 30.798 39.3146 31.6125 38.8699L39.9077 34.3407C41.7251 33.3484 43.9419 34.6638 43.9419 36.7344V40.6897Z" fill="#0985A7"/>
<path d="M44.5161 20.8256C46.4111 21.8593 46.4112 24.5804 44.5161 25.6141L31.6115 32.6529C30.7975 33.097 29.8136 33.097 28.9996 32.6529L16.095 25.6141C14.1999 24.5804 14.1999 21.8593 16.095 20.8256L28.9996 13.7867C29.8136 13.3427 30.7975 13.3427 31.6115 13.7867L44.5161 20.8256Z" fill="#0985A7"/>
</g>
<defs>
<filter id="filter0_i_314_1629" x="0.25" y="0.901611" width="60.0555" height="64" filterUnits="userSpaceOnUse" color-interpolation-filters="sRGB">
<feFlood flood-opacity="0" result="BackgroundImageFix"/>
<feBlend mode="normal" in="SourceGraphic" in2="BackgroundImageFix" result="shape"/>
<feColorMatrix in="SourceAlpha" type="matrix" values="0 0 0 0 0 0 0 0 0 0 0 0 0 0 0 0 0 0 127 0" result="hardAlpha"/>
<feOffset dy="4"/>
<feGaussianBlur stdDeviation="2"/>
<feComposite in2="hardAlpha" operator="arithmetic" k2="-1" k3="1"/>
<feColorMatrix type="matrix" values="0 0 0 0 0 0 0 0 0 0 0 0 0 0 0 0 0 0 0.25 0"/>
<feBlend mode="normal" in2="shape" result="effect1_innerShadow_314_1629"/>
</filter>
</defs>
</svg>
