<svg width="62" height="61" viewBox="0 0 62 61" fill="none" xmlns="http://www.w3.org/2000/svg">
<g filter="url(#filter0_i_314_1653)">
<path d="M44.2729 30.859C43.0856 30.859 41.947 30.3874 41.1075 29.5479C40.268 28.7084 39.7964 27.5698 39.7964 26.3825C39.7964 25.1953 40.268 24.0567 41.1075 23.2172C41.947 22.3776 43.0856 21.906 44.2729 21.906C45.4601 21.906 46.5987 22.3776 47.4382 23.2172C48.2777 24.0567 48.7494 25.1953 48.7494 26.3825C48.7494 27.5698 48.2777 28.7084 47.4382 29.5479C46.5987 30.3874 45.4601 30.859 44.2729 30.859ZM35.3199 18.9217C34.1326 18.9217 32.994 18.4501 32.1545 17.6105C31.315 16.771 30.8434 15.6324 30.8434 14.4452C30.8434 13.2579 31.315 12.1193 32.1545 11.2798C32.994 10.4403 34.1326 9.96867 35.3199 9.96867C36.5071 9.96867 37.6457 10.4403 38.4852 11.2798C39.3247 12.1193 39.7964 13.2579 39.7964 14.4452C39.7964 15.6324 39.3247 16.771 38.4852 17.6105C37.6457 18.4501 36.5071 18.9217 35.3199 18.9217ZM20.3982 18.9217C19.2109 18.9217 18.0723 18.4501 17.2328 17.6105C16.3933 16.771 15.9217 15.6324 15.9217 14.4452C15.9217 13.2579 16.3933 12.1193 17.2328 11.2798C18.0723 10.4403 19.2109 9.96867 20.3982 9.96867C21.5854 9.96867 22.724 10.4403 23.5636 11.2798C24.4031 12.1193 24.8747 13.2579 24.8747 14.4452C24.8747 15.6324 24.4031 16.771 23.5636 17.6105C22.724 18.4501 21.5854 18.9217 20.3982 18.9217ZM11.4452 30.859C10.2579 30.859 9.11932 30.3874 8.27981 29.5479C7.4403 28.7084 6.96867 27.5698 6.96867 26.3825C6.96867 25.1953 7.4403 24.0567 8.27981 23.2172C9.11932 22.3776 10.2579 21.906 11.4452 21.906C12.6324 21.906 13.771 22.3776 14.6105 23.2172C15.4501 24.0567 15.9217 25.1953 15.9217 26.3825C15.9217 27.5698 15.4501 28.7084 14.6105 29.5479C13.771 30.3874 12.6324 30.859 11.4452 30.859ZM27.859 4C20.7356 4 13.9039 6.82978 8.86683 11.8668C3.82978 16.9039 1 23.7356 1 30.859C1 37.9825 3.82978 44.8142 8.86683 49.8512C13.9039 54.8883 20.7356 57.7181 27.859 57.7181C29.0463 57.7181 30.1849 57.2464 31.0244 56.4069C31.8639 55.5674 32.3355 54.4288 32.3355 53.2415C32.3355 52.0777 31.8879 51.0331 31.1716 50.2572C30.4852 49.4514 30.0376 48.4069 30.0376 47.2729C30.0376 46.0856 30.5092 44.947 31.3487 44.1075C32.1882 43.268 33.3269 42.7964 34.5141 42.7964H39.7964C43.7538 42.7964 47.5492 41.2243 50.3476 38.4259C53.146 35.6276 54.7181 31.8322 54.7181 27.8747C54.7181 14.6839 42.6912 4 27.859 4Z" fill="#FFB000"/>
</g>
<path d="M30.791 50.5814L30.7975 50.589L30.8042 50.5964C31.439 51.2841 31.8355 52.2089 31.8355 53.2415C31.8355 54.2962 31.4166 55.3076 30.6708 56.0534C29.9251 56.7991 28.9137 57.2181 27.859 57.2181C20.8682 57.2181 14.1637 54.4409 9.22038 49.4977C4.2771 44.5544 1.5 37.8499 1.5 30.859C1.5 23.8682 4.2771 17.1637 9.22038 12.2204C14.1637 7.2771 20.8682 4.5 27.859 4.5C42.4721 4.5 54.2181 15.0139 54.2181 27.8747C54.2181 31.6996 52.6986 35.3678 49.994 38.0724C47.2894 40.7769 43.6212 42.2964 39.7964 42.2964H34.5141C33.1942 42.2964 31.9285 42.8207 30.9952 43.754C30.0619 44.6872 29.5376 45.953 29.5376 47.2729C29.5376 48.5405 30.0377 49.6971 30.791 50.5814ZM40.754 29.9014C41.6872 30.8347 42.953 31.359 44.2729 31.359C45.5927 31.359 46.8585 30.8347 47.7918 29.9014C48.7251 28.9682 49.2494 27.7024 49.2494 26.3825C49.2494 25.0627 48.7251 23.7969 47.7918 22.8636C46.8585 21.9303 45.5927 21.406 44.2729 21.406C42.953 21.406 41.6872 21.9303 40.754 22.8636C39.8207 23.7969 39.2964 25.0627 39.2964 26.3825C39.2964 27.7024 39.8207 28.9682 40.754 29.9014ZM31.8009 17.9641C32.7342 18.8974 34 19.4217 35.3199 19.4217C36.6397 19.4217 37.9055 18.8974 38.8388 17.9641C39.7721 17.0308 40.2964 15.765 40.2964 14.4452C40.2964 13.1253 39.7721 11.8595 38.8388 10.9263C37.9055 9.99298 36.6397 9.46867 35.3199 9.46867C34 9.46867 32.7342 9.99298 31.8009 10.9263C30.8677 11.8595 30.3434 13.1253 30.3434 14.4452C30.3434 15.765 30.8677 17.0308 31.8009 17.9641ZM16.8793 17.9641C17.8125 18.8974 19.0783 19.4217 20.3982 19.4217C21.718 19.4217 22.9838 18.8974 23.9171 17.9641C24.8504 17.0308 25.3747 15.765 25.3747 14.4452C25.3747 13.1253 24.8504 11.8595 23.9171 10.9263C22.9838 9.99298 21.718 9.46867 20.3982 9.46867C19.0783 9.46867 17.8125 9.99298 16.8793 10.9263C15.946 11.8595 15.4217 13.1253 15.4217 14.4452C15.4217 15.765 15.946 17.0308 16.8793 17.9641ZM7.92626 29.9014C8.85953 30.8347 10.1253 31.359 11.4452 31.359C12.765 31.359 14.0308 30.8347 14.9641 29.9014C15.8974 28.9682 16.4217 27.7024 16.4217 26.3825C16.4217 25.0627 15.8974 23.7969 14.9641 22.8636C14.0308 21.9303 12.765 21.406 11.4452 21.406C10.1253 21.406 8.85953 21.9303 7.92626 22.8636C6.99298 23.7969 6.46867 25.0627 6.46867 26.3825C6.46867 27.7024 6.99298 28.9682 7.92626 29.9014Z" stroke="#D89502"/>
<path d="M61.4134 13.2262L61.5 14.8891V14.8904C61.4981 15.5767 61.3369 16.2531 61.029 16.8664C60.7292 17.4845 60.2898 18.0244 59.7455 18.4436L59.7436 18.4451C59.2008 18.8588 58.5721 19.1455 57.9038 19.284L57.9001 19.2848C57.6047 19.3437 57.3055 19.3731 57.0029 19.3731C56.6225 19.3731 56.2474 19.3292 55.8783 19.2416L55.8679 19.2391L55.8576 19.2362L50.9372 17.8436V27.9538C50.9406 29.3991 49.9452 30.8026 49.0345 31.925C48.1239 33.0474 46.8539 33.8212 45.4388 34.1157C44.0238 34.4102 42.5505 34.2074 41.2677 33.5415C39.9849 32.8756 38.9711 31.7875 38.3976 30.4608C37.8241 29.1341 37.726 27.6501 38.1199 26.2595C38.5137 24.8688 39.3753 23.6567 40.5593 22.8277C41.7433 21.9987 43.1771 21.6037 44.6185 21.7093C45.8408 21.7989 47.0051 21.6274 47.9714 22.3659V8.33389C47.9567 8.22247 47.9567 8.10961 47.9714 7.99819V7.93015V7.82592L48.013 7.73036C48.1083 7.51172 48.2545 7.31903 48.4394 7.16836C48.6243 7.0177 48.8426 6.91343 49.076 6.86426L49.127 6.85352H49.1791H49.7557H49.8253L49.8923 6.87255L58.1454 9.21748C59.0933 9.47345 59.9293 10.0369 60.5222 10.8195C61.0516 11.5181 61.3604 12.356 61.4134 13.2262Z" fill="white"/>
<path d="M50.9372 27.9538V17.8436L55.8576 19.2362L55.8679 19.2391L55.8783 19.2416C56.2474 19.3292 56.6225 19.3731 57.0029 19.3731C57.3055 19.3731 57.6047 19.3437 57.9001 19.2848L57.9038 19.284C58.5721 19.1455 59.2008 18.8588 59.7436 18.4451L59.7455 18.4436C60.2898 18.0244 60.7292 17.4845 61.029 16.8664C61.3369 16.2531 61.4981 15.5767 61.5 14.8904V14.8891L61.4134 13.2262C61.3604 12.356 61.0516 11.5181 60.5222 10.8195C59.9293 10.0369 59.0933 9.47345 58.1454 9.21748L49.8923 6.87255L49.8253 6.85352H49.7557H49.1791H49.127L49.076 6.86426C48.8426 6.91343 48.6243 7.0177 48.4394 7.16836C48.2545 7.31903 48.1083 7.51172 48.013 7.73036L47.9714 7.82592V7.93015V7.99819C47.9567 8.10961 47.9567 8.22247 47.9714 8.33389V22.3659C47.0051 21.6274 45.8408 21.7989 44.6185 21.7093C43.1771 21.6037 41.7433 21.9987 40.5593 22.8277C39.3753 23.6567 38.5137 24.8688 38.1199 26.2595C37.726 27.6501 37.8241 29.1341 38.3976 30.4608C38.9711 31.7875 39.9849 32.8756 41.2677 33.5415C42.5505 34.2074 44.0238 34.4102 45.4388 34.1157C46.8539 33.8212 48.1239 33.0474 49.0345 31.925C49.9452 30.8026 50.9406 29.3991 50.9372 27.9538ZM50.9372 27.9538V27.955" stroke="#D89502"/>
<defs>
<filter id="filter0_i_314_1653" x="1" y="3.18177" width="53.718" height="54.5362" filterUnits="userSpaceOnUse" color-interpolation-filters="sRGB">
<feFlood flood-opacity="0" result="BackgroundImageFix"/>
<feBlend mode="normal" in="SourceGraphic" in2="BackgroundImageFix" result="shape"/>
<feColorMatrix in="SourceAlpha" type="matrix" values="0 0 0 0 0 0 0 0 0 0 0 0 0 0 0 0 0 0 127 0" result="hardAlpha"/>
<feOffset dy="-0.818229"/>
<feGaussianBlur stdDeviation="1.22734"/>
<feComposite in2="hardAlpha" operator="arithmetic" k2="-1" k3="1"/>
<feColorMatrix type="matrix" values="0 0 0 0 0 0 0 0 0 0 0 0 0 0 0 0 0 0 0.25 0"/>
<feBlend mode="normal" in2="shape" result="effect1_innerShadow_314_1653"/>
</filter>
</defs>
</svg>
