<svg width="61" height="61" viewBox="0 0 61 61" fill="none" xmlns="http://www.w3.org/2000/svg">
<g filter="url(#filter0_i_296_3187)">
<path d="M30.5834 32.4471C35.1713 32.4471 39.3281 33.9658 42.3777 36.0895C45.2755 38.1103 47.7298 41.1134 47.7298 44.3443C47.7298 46.1177 46.973 47.5874 45.7801 48.6799C44.6582 49.7111 43.1934 50.3798 41.6845 50.8354C38.6692 51.7491 34.6985 52.043 30.5834 52.043C26.4682 52.043 22.4976 51.7491 19.4823 50.8354C17.9734 50.3798 16.5086 49.7111 15.3843 48.6799C14.1962 47.5899 13.4369 46.1202 13.4369 44.3467C13.4369 41.1158 15.8913 38.1128 18.7891 36.0919C21.8387 33.9658 25.9955 32.4471 30.5834 32.4471ZM47.7298 34.8966C50.2871 34.8966 52.6092 35.7416 54.3263 36.937C55.894 38.0319 57.5278 39.8519 57.5278 42.0711C57.5278 43.3375 56.9767 44.3884 56.1561 45.1404C55.4066 45.8287 54.4807 46.2328 53.6356 46.4876C52.4843 46.8354 51.1249 47.0142 49.7139 47.0926C50.0128 46.2475 50.1793 45.329 50.1793 44.3443C50.1793 40.5843 47.8303 37.3902 45.202 35.1734C46.0321 34.99 46.8797 34.8972 47.7298 34.8966ZM13.4369 34.8966C14.3138 34.8998 15.1564 34.9921 15.9648 35.1734C13.3389 37.3902 10.9874 40.5843 10.9874 44.3443C10.9874 45.329 11.154 46.2475 11.4528 47.0926C10.0419 47.0142 8.68488 46.8354 7.53117 46.4876C6.68609 46.2328 5.76018 45.8287 5.00818 45.1404C4.57714 44.7542 4.23239 44.2815 3.99645 43.753C3.7605 43.2246 3.63868 42.6523 3.63892 42.0736C3.63892 39.8568 5.27028 38.0344 6.84041 36.9395C8.78251 35.608 11.0822 34.8958 13.4369 34.8966ZM46.5051 20.1996C48.1292 20.1996 49.6868 20.8448 50.8352 21.9932C51.9837 23.1416 52.6288 24.6992 52.6288 26.3233C52.6288 27.9475 51.9837 29.5051 50.8352 30.6535C49.6868 31.8019 48.1292 32.4471 46.5051 32.4471C44.881 32.4471 43.3234 31.8019 42.175 30.6535C41.0265 29.5051 40.3814 27.9475 40.3814 26.3233C40.3814 24.6992 41.0265 23.1416 42.175 21.9932C43.3234 20.8448 44.881 20.1996 46.5051 20.1996ZM14.6616 20.1996C16.2858 20.1996 17.8434 20.8448 18.9918 21.9932C20.1402 23.1416 20.7854 24.6992 20.7854 26.3233C20.7854 27.9475 20.1402 29.5051 18.9918 30.6535C17.8434 31.8019 16.2858 32.4471 14.6616 32.4471C13.0375 32.4471 11.4799 31.8019 10.3315 30.6535C9.18309 29.5051 8.53791 27.9475 8.53791 26.3233C8.53791 24.6992 9.18309 23.1416 10.3315 21.9932C11.4799 20.8448 13.0375 20.1996 14.6616 20.1996ZM30.5834 10.4016C33.182 10.4016 35.6741 11.4339 37.5116 13.2714C39.3491 15.1089 40.3814 17.601 40.3814 20.1996C40.3814 22.7982 39.3491 25.2903 37.5116 27.1278C35.6741 28.9653 33.182 29.9976 30.5834 29.9976C27.9848 29.9976 25.4926 28.9653 23.6552 27.1278C21.8177 25.2903 20.7854 22.7982 20.7854 20.1996C20.7854 17.601 21.8177 15.1089 23.6552 13.2714C25.4926 11.4339 27.9848 10.4016 30.5834 10.4016Z" fill="#8700BF"/>
</g>
<path d="M45.1047 47.9424L45.1033 47.9437C44.1359 48.833 42.83 49.445 41.3954 49.8781L41.3945 49.8784C38.5249 50.7479 34.6751 51.043 30.5834 51.043C26.4917 51.043 22.6418 50.7479 19.7722 49.8784L19.7713 49.8781C18.337 49.4451 17.0306 48.833 16.0603 47.9431C15.0543 47.02 14.4369 45.8084 14.4369 44.3467C14.4369 41.6083 16.5586 38.8666 19.361 36.9122C22.2529 34.896 26.2119 33.4471 30.5834 33.4471C34.9548 33.4471 38.9141 34.8961 41.8062 36.9101C44.6084 38.8644 46.7298 41.606 46.7298 44.3443C46.7298 45.8065 46.1145 47.0176 45.1047 47.9424ZM55.4805 44.4031L55.4797 44.4038C54.8841 44.9507 54.1167 45.2981 53.347 45.5301L53.3464 45.5303C52.6623 45.737 51.8808 45.8821 51.0375 45.9791C51.1304 45.4531 51.1793 44.9076 51.1793 44.3443C51.1793 40.984 49.5015 38.0993 47.4274 35.9011C47.5284 35.8981 47.6295 35.8966 47.7306 35.8966C50.0709 35.8967 52.1951 36.6719 53.7547 37.7575C55.2293 38.7877 56.5278 40.3462 56.5278 42.0711C56.5278 43.0257 56.1188 43.8182 55.4805 44.4031ZM13.4351 35.8966C13.5372 35.897 13.6388 35.8987 13.7397 35.9017C11.6668 38.0996 9.98741 40.9841 9.98741 44.3443C9.98741 44.9076 10.0363 45.453 10.1293 45.979C9.28666 45.882 8.50564 45.7369 7.81982 45.5302L7.81979 45.5301C7.05038 45.2982 6.28203 44.9507 5.68337 44.4027L5.6834 44.4027L5.67545 44.3955C5.34915 44.1032 5.08817 43.7454 4.90957 43.3453C4.73096 42.9453 4.63873 42.5121 4.63892 42.074V42.0736C4.63892 40.3514 5.93448 38.7913 7.40927 37.7619C9.18367 36.5465 11.2843 35.8962 13.4351 35.8966ZM46.5051 21.1996C47.864 21.1996 49.1673 21.7394 50.1281 22.7003C51.089 23.6612 51.6288 24.9644 51.6288 26.3233C51.6288 27.6822 51.089 28.9855 50.1281 29.9464C49.1673 30.9073 47.864 31.4471 46.5051 31.4471C45.1462 31.4471 43.843 30.9073 42.8821 29.9464C41.9212 28.9855 41.3814 27.6822 41.3814 26.3233C41.3814 24.9644 41.9212 23.6612 42.8821 22.7003C43.843 21.7394 45.1462 21.1996 46.5051 21.1996ZM14.6616 21.1996C16.0205 21.1996 17.3238 21.7394 18.2847 22.7003C19.2456 23.6612 19.7854 24.9644 19.7854 26.3233C19.7854 27.6822 19.2456 28.9855 18.2847 29.9464C17.3238 30.9073 16.0205 31.4471 14.6616 31.4471C13.3027 31.4471 11.9995 30.9073 11.0386 29.9464C10.0777 28.9855 9.53791 27.6822 9.53791 26.3233C9.53791 24.9644 10.0777 23.6612 11.0386 22.7003C11.9995 21.7394 13.3027 21.1996 14.6616 21.1996ZM30.5834 11.4016C32.9167 11.4016 35.1546 12.3285 36.8045 13.9785C38.4544 15.6284 39.3814 17.8662 39.3814 20.1996C39.3814 22.533 38.4544 24.7708 36.8045 26.4207C35.1546 28.0707 32.9167 28.9976 30.5834 28.9976C28.25 28.9976 26.0122 28.0707 24.3623 26.4207C22.7123 24.7708 21.7854 22.533 21.7854 20.1996C21.7854 17.8662 22.7123 15.6284 24.3623 13.9785C26.0122 12.3285 28.25 11.4016 30.5834 11.4016Z" stroke="#8700BF" stroke-width="2"/>
<defs>
<filter id="filter0_i_296_3187" x="3.63892" y="10.4016" width="53.8889" height="45.6414" filterUnits="userSpaceOnUse" color-interpolation-filters="sRGB">
<feFlood flood-opacity="0" result="BackgroundImageFix"/>
<feBlend mode="normal" in="SourceGraphic" in2="BackgroundImageFix" result="shape"/>
<feColorMatrix in="SourceAlpha" type="matrix" values="0 0 0 0 0 0 0 0 0 0 0 0 0 0 0 0 0 0 127 0" result="hardAlpha"/>
<feOffset dy="4"/>
<feGaussianBlur stdDeviation="2"/>
<feComposite in2="hardAlpha" operator="arithmetic" k2="-1" k3="1"/>
<feColorMatrix type="matrix" values="0 0 0 0 0 0 0 0 0 0 0 0 0 0 0 0 0 0 0.25 0"/>
<feBlend mode="normal" in2="shape" result="effect1_innerShadow_296_3187"/>
</filter>
</defs>
</svg>
