<svg width="64" height="61" viewBox="0 0 64 61" fill="none" xmlns="http://www.w3.org/2000/svg">
<g filter="url(#filter0_i_178_1577)">
<path fill-rule="evenodd" clip-rule="evenodd" d="M55.9604 21.4457L57.0588 22.0579L57.0648 22.0609C58.8534 23.0543 59.7478 23.5524 60.399 24.2607C60.9767 24.8866 61.4146 25.6283 61.6835 26.4365C61.9866 27.3518 61.9896 28.3782 61.9926 30.428L61.9986 32.1506C62.0046 34.1914 62.0046 35.2177 61.7045 36.1331C61.4374 36.9434 60.9992 37.6937 60.417 38.3239C59.7653 39.0321 58.8717 39.5279 57.0955 40.5133L57.0498 40.5387L55.9664 41.1389L55.9604 41.1419L55.6303 41.325C54.8052 41.8175 54.1105 42.5009 53.6045 43.3177L53.4094 43.6479C52.8345 44.5753 52.5232 45.6419 52.5091 46.733V47.1141L52.5331 48.4346C52.5691 50.4574 52.5841 51.4747 52.299 52.3901C52.0439 53.2034 51.6238 53.9536 51.0536 54.5929C50.4205 55.3066 49.5408 55.8182 47.7937 56.8344L47.7674 56.8497L46.2818 57.711L46.276 57.7144C44.5002 58.7445 43.6068 59.2628 42.6625 59.4607C41.8241 59.6338 40.9585 59.6256 40.1236 59.4367C39.4585 59.2889 38.8247 58.9837 37.8909 58.4458L37.4424 49.7302C39.5433 48.895 41.3725 47.4952 42.7278 45.6855C44.083 43.8759 44.9116 41.7268 45.122 39.4757C45.3324 37.2247 44.9164 34.9593 43.92 32.9298C42.9235 30.9004 41.3854 29.1859 39.4756 27.9758C39.2067 27.8045 38.8965 27.7091 38.5778 27.6996C38.2591 27.6902 37.9438 27.767 37.6652 27.922C37.3866 28.077 37.155 28.3044 36.995 28.5801C36.835 28.8559 36.7525 29.1698 36.7562 29.4886L36.8413 37.3589L32.8887 39.0348L29.0557 37.1146L29.6281 29.2613C29.6508 28.9442 29.5877 28.6269 29.4454 28.3427C29.3031 28.0585 29.0869 27.8179 28.8194 27.6461C28.552 27.4744 28.2432 27.3779 27.9256 27.3667C27.6079 27.3555 27.2931 27.4302 27.0143 27.5827C25.0312 28.67 23.3874 30.2845 22.2646 32.2477C21.1418 34.211 20.5838 36.4465 20.6523 38.707C20.7208 40.9676 21.4131 43.1652 22.6526 45.0569C23.8922 46.9486 25.6307 48.4606 27.676 49.4258L26.6774 58.1072C25.4307 58.8469 24.6885 59.2434 23.9026 59.4187C23.0703 59.6053 22.2079 59.6125 21.3726 59.4397C20.4336 59.2459 19.5509 58.7383 17.795 57.7286L17.7593 57.708L16.2768 56.8527L16.2282 56.8246C14.4778 55.8139 13.5939 55.3036 12.9576 54.5899C12.3873 53.9506 11.9612 53.1974 11.7061 52.3811C11.418 51.4597 11.433 50.4273 11.469 48.3686L11.49 47.1471C11.5452 46.0655 11.3067 44.9891 10.7998 44.032L10.5987 43.6719C10.0864 42.7024 9.31834 41.8918 8.37787 41.328C8.31958 41.2918 8.25859 41.2583 8.16967 41.2095C8.12582 41.1854 8.07519 41.1576 8.01473 41.1239L6.94034 40.5267C5.14868 39.5303 4.25435 39.0322 3.60011 38.3239C3.02313 37.6968 2.58629 36.9541 2.31864 36.1451C2.01553 35.2297 2.00952 34.2064 2.00652 32.1566L2.00052 30.467C1.99752 28.4022 1.99752 27.3729 2.29763 26.4515C2.5664 25.6375 3.00643 24.8904 3.58811 24.2607C4.24235 23.5464 5.14568 23.0453 6.95234 22.0459L8.03574 21.4457L8.37187 21.2566C9.19688 20.7641 9.8916 20.0807 10.3976 19.2639C10.4298 19.2146 10.4597 19.1629 10.5023 19.0891C10.5271 19.0461 10.5562 18.9956 10.5927 18.9338C11.1682 18.0075 11.4805 16.942 11.496 15.8516C11.4975 15.8055 11.496 15.7586 11.4942 15.6992C11.4923 15.6389 11.49 15.5658 11.49 15.4675L11.469 14.195C11.433 12.1423 11.418 11.1159 11.7031 10.1945C11.957 9.3801 12.3816 8.62914 12.9485 7.99172C13.5848 7.27446 14.4701 6.75827 16.2348 5.73789L16.2498 5.72589L17.7143 4.87658L17.7233 4.87358L17.7364 4.86596C19.5073 3.83865 20.3936 3.32452 21.3396 3.12693C22.1775 2.95182 23.0432 2.95796 23.8786 3.14494C24.8239 3.35802 25.7092 3.88621 27.4769 4.9486L28.5483 5.59084C28.583 5.61192 28.614 5.63082 28.6421 5.64793C28.75 5.7137 28.8147 5.75319 28.8814 5.78891C29.7183 6.25537 30.6548 6.51469 31.6124 6.54519L32.0026 6.54819C32.1976 6.54819 32.2967 6.54819 32.3927 6.54219C33.3501 6.51218 34.2804 6.25709 35.1147 5.79191C35.1294 5.78349 35.1443 5.77507 35.1596 5.76636C35.2318 5.72539 35.3152 5.67799 35.4538 5.59384L36.5162 4.96061L36.5252 4.95461L36.5564 4.93598C38.2913 3.89797 39.1658 3.37478 40.0995 3.16595C40.9318 2.97927 41.7942 2.97211 42.6295 3.14494C43.5748 3.34001 44.4661 3.8532 46.2428 4.87658L47.7253 5.73189C49.511 6.75827 50.4023 7.27446 51.0446 7.99472C51.6144 8.63334 52.0411 9.38646 52.296 10.2035C52.5841 11.1219 52.5661 12.1483 52.5301 14.189L52.5121 15.4645C52.4513 16.6866 52.7654 17.8982 53.4124 18.9368C53.4283 18.9645 53.4429 18.9901 53.4564 19.0138C53.5245 19.1334 53.5654 19.2052 53.6105 19.2729C54.1138 20.0836 54.8031 20.7626 55.6213 21.2536L55.9604 21.4457Z" fill="#320A9E"/>
</g>
<path d="M57.0588 22.0579L56.4502 23.1498C56.4664 23.1588 56.4829 23.1675 56.4995 23.1758L57.0588 22.0579ZM55.9604 21.4457L55.3443 22.5334L55.3518 22.5375L55.9604 21.4457ZM57.0648 22.0609L57.6717 20.9681C57.656 20.9594 57.6401 20.951 57.6241 20.943L57.0648 22.0609ZM60.399 24.2607L59.4789 25.1068L59.4804 25.1085L60.399 24.2607ZM61.6835 26.4365L62.8701 26.0436L62.8695 26.0418L61.6835 26.4365ZM61.9926 30.428L60.7426 30.4298L60.7426 30.4323L61.9926 30.428ZM61.9986 32.1506L63.2486 32.1469L63.2486 32.1463L61.9986 32.1506ZM61.7045 36.1331L62.8917 36.5244L62.8923 36.5225L61.7045 36.1331ZM60.417 38.3239L59.4988 37.4757L59.4972 37.4775L60.417 38.3239ZM57.0955 40.5133L57.7019 41.6064L57.7019 41.6064L57.0955 40.5133ZM57.0498 40.5387L57.6555 41.6321L57.6561 41.6318L57.0498 40.5387ZM55.9664 41.1389L56.5245 42.2574C56.5406 42.2494 56.5565 42.241 56.5721 42.2323L55.9664 41.1389ZM55.9604 41.1419L55.4022 40.0235C55.386 40.0315 55.37 40.04 55.3541 40.0488L55.9604 41.1419ZM55.6303 41.325L55.024 40.2318C55.0124 40.2383 55.0009 40.2449 54.9895 40.2517L55.6303 41.325ZM53.6045 43.3177L52.5419 42.6594C52.5373 42.6669 52.5328 42.6743 52.5283 42.6818L53.6045 43.3177ZM53.4094 43.6479L54.4718 44.3065C54.4765 44.299 54.4811 44.2914 54.4856 44.2837L53.4094 43.6479ZM52.5091 46.733L51.2592 46.7168C51.2591 46.7222 51.2591 46.7276 51.2591 46.733L52.5091 46.733ZM52.5091 47.1141H51.2591C51.2591 47.1217 51.2592 47.1293 51.2593 47.1368L52.5091 47.1141ZM52.5331 48.4346L53.7829 48.4124L53.7829 48.4119L52.5331 48.4346ZM52.299 52.3901L53.4917 52.7642L53.4925 52.7618L52.299 52.3901ZM51.0536 54.5929L50.1208 53.7608L50.1185 53.7634L51.0536 54.5929ZM47.7937 56.8344L47.1653 55.7538L47.1652 55.7539L47.7937 56.8344ZM47.7674 56.8497L48.3943 57.9311L48.3959 57.9302L47.7674 56.8497ZM46.2818 57.711L45.6548 56.6296L45.6546 56.6298L46.2818 57.711ZM46.276 57.7144L45.6487 56.6332L45.6487 56.6332L46.276 57.7144ZM42.6625 59.4607L42.9153 60.6848L42.9188 60.6841L42.6625 59.4607ZM40.1236 59.4367L40.3995 58.2175L40.3947 58.2164L40.1236 59.4367ZM37.8909 58.4458L36.6425 58.5101C36.6643 58.9337 36.8995 59.3173 37.267 59.529L37.8909 58.4458ZM37.4424 49.7302L36.9806 48.5686C36.4829 48.7665 36.1665 49.2595 36.194 49.7944L37.4424 49.7302ZM45.122 39.4757L46.3666 39.5921L46.3666 39.5921L45.122 39.4757ZM43.92 32.9298L42.7979 33.4807L42.7979 33.4807L43.92 32.9298ZM39.4756 27.9758L38.8041 29.0301L38.8066 29.0317L39.4756 27.9758ZM38.5778 27.6996L38.5406 28.9491L38.5406 28.9491L38.5778 27.6996ZM37.6652 27.922L38.2728 29.0143L38.2728 29.0143L37.6652 27.922ZM36.995 28.5801L38.0762 29.2075L38.0762 29.2074L36.995 28.5801ZM36.7562 29.4886L38.0061 29.4751L38.0061 29.474L36.7562 29.4886ZM36.8413 37.3589L37.3292 38.5098C37.7957 38.312 38.0967 37.8521 38.0912 37.3454L36.8413 37.3589ZM32.8887 39.0348L32.3288 40.1524C32.6563 40.3165 33.0393 40.3286 33.3766 40.1856L32.8887 39.0348ZM29.0557 37.1146L27.809 37.0237C27.7722 37.5284 28.0434 38.0055 28.4958 38.2322L29.0557 37.1146ZM29.6281 29.2613L30.8748 29.3521L30.8749 29.3507L29.6281 29.2613ZM28.8194 27.6461L29.4949 26.5943L29.4949 26.5943L28.8194 27.6461ZM27.9256 27.3667L27.9694 26.1175L27.9694 26.1175L27.9256 27.3667ZM27.0143 27.5827L26.4143 26.4862L26.4134 26.4867L27.0143 27.5827ZM22.2646 32.2477L21.1795 31.6272L21.1795 31.6272L22.2646 32.2477ZM27.676 49.4258L28.9178 49.5687C28.979 49.0363 28.6941 48.5241 28.2095 48.2954L27.676 49.4258ZM26.6774 58.1072L27.3153 59.1823C27.6512 58.983 27.8746 58.6381 27.9193 58.2501L26.6774 58.1072ZM23.9026 59.4187L23.6306 58.1986L23.629 58.199L23.9026 59.4187ZM21.3726 59.4397L21.6259 58.2156L21.6253 58.2155L21.3726 59.4397ZM17.795 57.7286L17.1718 58.8121L17.1719 58.8122L17.795 57.7286ZM17.7593 57.708L17.1347 58.7908L17.1361 58.7916L17.7593 57.708ZM16.2768 56.8527L15.6517 57.9352L15.6521 57.9354L16.2768 56.8527ZM16.2282 56.8246L15.6031 57.9071L15.6031 57.9072L16.2282 56.8246ZM12.9576 54.5899L13.8905 53.758L13.8904 53.7578L12.9576 54.5899ZM11.7061 52.3811L12.8992 52.0082L12.8991 52.008L11.7061 52.3811ZM11.469 48.3686L12.7188 48.3904L12.7188 48.3901L11.469 48.3686ZM11.49 47.1471L10.2416 47.0835C10.2409 47.0975 10.2404 47.1116 10.2402 47.1256L11.49 47.1471ZM10.7998 44.032L11.9044 43.4469C11.9001 43.4388 11.8957 43.4307 11.8912 43.4226L10.7998 44.032ZM10.5987 43.6719L9.49349 44.2559C9.49799 44.2644 9.50258 44.2728 9.50727 44.2812L10.5987 43.6719ZM8.37787 41.328L7.71865 42.39C7.72413 42.3934 7.72964 42.3968 7.73518 42.4001L8.37787 41.328ZM8.16967 41.2095L8.77134 40.1138L8.77131 40.1138L8.16967 41.2095ZM8.01473 41.1239L8.62331 40.0321L8.62205 40.0314L8.01473 41.1239ZM6.94034 40.5267L6.33282 41.6191L6.33303 41.6193L6.94034 40.5267ZM3.60011 38.3239L2.68024 39.1703L2.6819 39.1721L3.60011 38.3239ZM2.31864 36.1451L3.50537 35.7525L3.50527 35.7521L2.31864 36.1451ZM2.00652 32.1566L3.25652 32.1548L3.25652 32.1522L2.00652 32.1566ZM2.00052 30.467L0.750519 30.4688L0.750529 30.4714L2.00052 30.467ZM2.29763 26.4515L1.11064 26.0596L1.10909 26.0644L2.29763 26.4515ZM3.58811 24.2607L4.50634 25.1089L4.50987 25.105L3.58811 24.2607ZM6.95234 22.0459L7.55739 23.1397L7.55811 23.1393L6.95234 22.0459ZM8.03574 21.4457L8.64152 22.5391L8.64857 22.5351L8.03574 21.4457ZM8.37187 21.2566L8.98469 22.3461C8.99407 22.3408 9.00337 22.3354 9.01261 22.3299L8.37187 21.2566ZM10.3976 19.2639L9.3514 18.5798C9.34583 18.5883 9.34036 18.5969 9.33499 18.6056L10.3976 19.2639ZM10.5023 19.0891L11.5849 19.714L11.5849 19.714L10.5023 19.0891ZM10.5927 18.9338L9.53093 18.2741C9.52578 18.2824 9.52072 18.2907 9.51576 18.2991L10.5927 18.9338ZM11.496 15.8516L10.2467 15.8113C10.2464 15.8188 10.2462 15.8263 10.2461 15.8338L11.496 15.8516ZM11.4942 15.6992L12.7436 15.6602L12.7436 15.6602L11.4942 15.6992ZM11.49 15.4675H12.74C12.74 15.4606 12.74 15.4537 12.7398 15.4468L11.49 15.4675ZM11.469 14.195L12.7188 14.1744L12.7188 14.1731L11.469 14.195ZM11.7031 10.1945L10.5097 9.82251L10.509 9.82501L11.7031 10.1945ZM12.9485 7.99172L13.8825 8.82249L13.8837 8.82121L12.9485 7.99172ZM16.2348 5.73789L16.8605 6.82001C16.9148 6.78861 16.9666 6.75317 17.0156 6.71398L16.2348 5.73789ZM16.2498 5.72589L15.6227 4.64456C15.5689 4.67577 15.5175 4.71095 15.4689 4.7498L16.2498 5.72589ZM17.7143 4.87658L17.3191 3.69071C17.2384 3.71758 17.1607 3.75261 17.0872 3.79525L17.7143 4.87658ZM17.7233 4.87358L18.1185 6.05944C18.1992 6.03255 18.277 5.9975 18.3505 5.95482L17.7233 4.87358ZM17.7364 4.86596L18.3637 5.9472L18.3637 5.9472L17.7364 4.86596ZM21.3396 3.12693L21.5952 4.35053L21.5953 4.3505L21.3396 3.12693ZM23.8786 3.14494L24.1534 1.92553L24.1516 1.92512L23.8786 3.14494ZM27.4769 4.9486L26.833 6.01999L26.8342 6.02073L27.4769 4.9486ZM28.5483 5.59084L29.197 4.52234L29.191 4.51871L28.5483 5.59084ZM28.6421 5.64793L27.9914 6.71522L27.9914 6.71523L28.6421 5.64793ZM28.8814 5.78891L29.49 4.69705C29.4839 4.69367 29.4778 4.69034 29.4717 4.68707L28.8814 5.78891ZM31.6124 6.54519L31.5726 7.79456C31.5827 7.79488 31.5927 7.79508 31.6028 7.79515L31.6124 6.54519ZM32.0026 6.54819L31.9929 7.79819H32.0026V6.54819ZM32.3927 6.54219L32.3535 5.2928C32.3406 5.29321 32.3277 5.29382 32.3147 5.29462L32.3927 6.54219ZM35.1147 5.79191L35.7235 6.88374L35.7349 6.87723L35.1147 5.79191ZM35.1596 5.76636L35.7768 6.85336L35.7769 6.85333L35.1596 5.76636ZM35.4538 5.59384L34.8138 4.52007L34.8051 4.52536L35.4538 5.59384ZM36.5162 4.96061L37.1562 6.03434C37.1743 6.02356 37.1921 6.01232 37.2097 6.00064L36.5162 4.96061ZM36.5252 4.95461L35.8835 3.88191C35.866 3.89238 35.8488 3.90327 35.8318 3.91458L36.5252 4.95461ZM36.5564 4.93598L37.1981 6.00867L37.1981 6.00865L36.5564 4.93598ZM40.0995 3.16595L40.3724 4.38581L40.3731 4.38564L40.0995 3.16595ZM42.6295 3.14494L42.3762 4.36901L42.3769 4.36915L42.6295 3.14494ZM46.2428 4.87658L46.8675 3.79385L46.8667 3.79342L46.2428 4.87658ZM47.7253 5.73189L47.1007 6.81462L47.1024 6.81562L47.7253 5.73189ZM51.0446 7.99472L50.1116 8.82663L50.1119 8.82698L51.0446 7.99472ZM52.296 10.2035L51.1027 10.5758L51.1033 10.5777L52.296 10.2035ZM52.5301 14.189L51.2803 14.1669L51.2802 14.1714L52.5301 14.189ZM52.5121 15.4645L53.7606 15.5266C53.7613 15.5118 53.7618 15.497 53.762 15.4821L52.5121 15.4645ZM53.4124 18.9368L54.4977 18.3166C54.4899 18.3028 54.4818 18.2892 54.4734 18.2758L53.4124 18.9368ZM53.4564 19.0138L52.3702 19.6324L52.3702 19.6324L53.4564 19.0138ZM53.6105 19.2729L54.6725 18.6136C54.6654 18.6021 54.6581 18.5908 54.6506 18.5795L53.6105 19.2729ZM55.6213 21.2536L54.978 22.3254C54.987 22.3308 54.9961 22.3361 55.0052 22.3413L55.6213 21.2536ZM57.6674 20.966L56.5689 20.3538L55.3518 22.5375L56.4502 23.1498L57.6674 20.966ZM57.6241 20.943L57.6181 20.94L56.4995 23.1758L56.5055 23.1788L57.6241 20.943ZM61.3192 23.4146C60.499 22.5226 59.3862 21.9203 57.6717 20.9681L56.4579 23.1537C58.3207 24.1882 58.9966 24.5823 59.4789 25.1068L61.3192 23.4146ZM62.8695 26.0418C62.5446 25.0653 62.0156 24.1692 61.3176 23.4129L59.4804 25.1085C59.9378 25.6041 60.2845 26.1913 60.4974 26.8312L62.8695 26.0418ZM63.2426 30.4261C63.2397 28.4605 63.2512 27.1943 62.8701 26.0436L60.4969 26.8295C60.722 27.5094 60.7395 28.296 60.7426 30.4298L63.2426 30.4261ZM63.2486 32.1463L63.2426 30.4236L60.7426 30.4323L60.7486 32.155L63.2486 32.1463ZM62.8923 36.5225C63.2699 35.3709 63.2544 34.105 63.2486 32.1469L60.7486 32.1543C60.7548 34.2777 60.7393 35.0646 60.5167 35.7436L62.8923 36.5225ZM61.3352 39.1721C62.0404 38.4087 62.5694 37.502 62.8917 36.5244L60.5173 35.7418C60.3054 36.3847 59.958 36.9786 59.4988 37.4757L61.3352 39.1721ZM57.7019 41.6064C59.4033 40.6625 60.516 40.0624 61.3369 39.1703L59.4972 37.4775C59.0147 38.0018 58.3402 38.3933 56.4891 39.4203L57.7019 41.6064ZM57.6561 41.6318L57.7019 41.6064L56.4892 39.4203L56.4434 39.4456L57.6561 41.6318ZM56.5721 42.2323L57.6555 41.6321L56.444 39.4453L55.3606 40.0455L56.5721 42.2323ZM56.5185 42.2604L56.5245 42.2574L55.4082 40.0205L55.4022 40.0235L56.5185 42.2604ZM56.2365 42.4181L56.5666 42.2351L55.3541 40.0488L55.024 40.2318L56.2365 42.4181ZM54.6671 43.976C55.0678 43.3293 55.6178 42.7882 56.271 42.3983L54.9895 40.2517C53.9927 40.8468 53.1533 41.6725 52.5419 42.6594L54.6671 43.976ZM54.4856 44.2837L54.6807 43.9536L52.5283 42.6818L52.3333 43.012L54.4856 44.2837ZM53.759 46.7491C53.7702 45.8853 54.0166 45.0408 54.4718 44.3065L52.347 42.9892C51.6523 44.1098 51.2762 45.3985 51.2592 46.7168L53.759 46.7491ZM53.7591 47.1141V46.733H51.2591V47.1141H53.7591ZM53.7829 48.4119L53.7589 47.0914L51.2593 47.1368L51.2833 48.4573L53.7829 48.4119ZM53.4925 52.7618C53.8515 51.6092 53.8175 50.3531 53.7829 48.4124L51.2833 48.4569C51.3208 50.5616 51.3168 51.3403 51.1056 52.0183L53.4925 52.7618ZM51.9864 55.425C52.6777 54.6499 53.1849 53.7426 53.4917 52.7642L51.1063 52.016C50.903 52.6642 50.5699 53.2573 50.1208 53.7608L51.9864 55.425ZM48.4222 57.9149C50.0953 56.9418 51.1908 56.3218 51.9887 55.4224L50.1185 53.7634C49.6502 54.2913 48.9864 54.6946 47.1653 55.7538L48.4222 57.9149ZM48.3959 57.9302L48.4222 57.9149L47.1652 55.7539L47.1389 55.7692L48.3959 57.9302ZM46.9088 58.7924L48.3943 57.9311L47.1404 55.7683L45.6548 56.6296L46.9088 58.7924ZM46.9032 58.7957L46.909 58.7923L45.6546 56.6298L45.6487 56.6332L46.9032 58.7957ZM42.9188 60.6841C44.1069 60.4352 45.2021 59.7824 46.9032 58.7957L45.6487 56.6332C43.7983 57.7066 43.1067 58.0905 42.4061 58.2372L42.9188 60.6841ZM39.8476 60.6558C40.8564 60.8841 41.9024 60.894 42.9153 60.6848L42.4097 58.2365C41.7459 58.3736 41.0605 58.3671 40.3995 58.2175L39.8476 60.6558ZM37.267 59.529C38.218 60.0767 38.9903 60.4653 39.8524 60.6569L40.3947 58.2164C39.9267 58.1124 39.4314 57.8906 38.5148 57.3626L37.267 59.529ZM36.194 49.7944L36.6425 58.5101L39.1392 58.3816L38.6907 49.6659L36.194 49.7944ZM41.7272 44.9362C40.5101 46.5614 38.8674 47.8185 36.9806 48.5686L37.9042 50.8917C40.2193 49.9714 42.2349 48.429 43.7283 46.4348L41.7272 44.9362ZM43.8775 39.3594C43.6885 41.381 42.9444 43.3111 41.7272 44.9362L43.7283 46.4348C45.2217 44.4407 46.1348 42.0726 46.3666 39.5921L43.8775 39.3594ZM42.7979 33.4807C43.6928 35.3033 44.0664 37.3378 43.8775 39.3594L46.3666 39.5921C46.5984 37.1115 46.14 34.6152 45.042 32.3789L42.7979 33.4807ZM38.8066 29.0317C40.5217 30.1184 41.903 31.6582 42.7979 33.4807L45.042 32.3789C43.944 30.1426 42.2491 28.2533 40.1446 26.9199L38.8066 29.0317ZM38.5406 28.9491C38.6342 28.9519 38.7252 28.9799 38.8041 29.0301L40.1471 26.9215C39.6882 26.6292 39.1588 26.4664 38.615 26.4502L38.5406 28.9491ZM38.2728 29.0143C38.3546 28.9688 38.4471 28.9463 38.5406 28.9491L38.615 26.4502C38.0711 26.434 37.533 26.5651 37.0575 26.8296L38.2728 29.0143ZM38.0762 29.2074C38.1231 29.1265 38.1911 29.0598 38.2728 29.0143L37.0575 26.8296C36.582 27.0941 36.1869 27.4822 35.9138 27.9528L38.0762 29.2074ZM38.0061 29.474C38.005 29.3805 38.0292 29.2884 38.0762 29.2075L35.9138 27.9528C35.6407 28.4234 35.4999 28.9591 35.5063 29.5032L38.0061 29.474ZM38.0912 37.3454L38.0061 29.4751L35.5063 29.5021L35.5914 37.3724L38.0912 37.3454ZM33.3766 40.1856L37.3292 38.5098L36.3533 36.2081L32.4007 37.884L33.3766 40.1856ZM28.4958 38.2322L32.3288 40.1524L33.4486 37.9172L29.6156 35.997L28.4958 38.2322ZM28.3814 29.1704L27.809 37.0237L30.3024 37.2054L30.8748 29.3521L28.3814 29.1704ZM28.3277 28.9023C28.3694 28.9857 28.388 29.0788 28.3813 29.1719L30.8749 29.3507C30.9137 28.8096 30.806 28.2682 30.5632 27.7831L28.3277 28.9023ZM28.144 28.6979C28.2225 28.7483 28.2859 28.8189 28.3277 28.9023L30.5632 27.7831C30.3203 27.2981 29.9513 26.8874 29.4949 26.5943L28.144 28.6979ZM27.8817 28.6159C27.9749 28.6192 28.0655 28.6475 28.144 28.6979L29.4949 26.5943C29.0385 26.3012 28.5115 26.1365 27.9694 26.1175L27.8817 28.6159ZM27.6143 28.6793C27.6961 28.6346 27.7885 28.6127 27.8817 28.6159L27.9694 26.1175C27.4273 26.0984 26.8901 26.2258 26.4143 26.4862L27.6143 28.6793ZM23.3497 32.8683C24.358 31.1052 25.8342 29.6553 27.6152 28.6788L26.4134 26.4867C24.2281 27.6848 22.4167 29.4638 21.1795 31.6272L23.3497 32.8683ZM21.9017 38.6692C21.8402 36.639 22.3413 34.6314 23.3497 32.8683L21.1795 31.6272C19.9423 33.7905 19.3274 36.2539 19.4029 38.7449L21.9017 38.6692ZM23.6981 44.3718C22.5849 42.6729 21.9632 40.6993 21.9017 38.6692L19.4029 38.7449C19.4783 41.2359 20.2412 43.6575 21.6071 45.742L23.6981 44.3718ZM28.2095 48.2954C26.3727 47.4285 24.8114 46.0706 23.6981 44.3718L21.6071 45.742C22.973 47.8265 24.8887 49.4926 27.1425 50.5563L28.2095 48.2954ZM27.9193 58.2501L28.9178 49.5687L26.4342 49.283L25.4356 57.9644L27.9193 58.2501ZM24.1746 60.6387C25.1835 60.4138 26.0886 59.91 27.3153 59.1823L26.0396 57.0322C24.7727 57.7838 24.1936 58.0731 23.6306 58.1986L24.1746 60.6387ZM21.1194 60.6637C22.1285 60.8725 23.1706 60.8639 24.1762 60.6383L23.629 58.199C22.9701 58.3468 22.2872 58.3524 21.6259 58.2156L21.1194 60.6637ZM17.1719 58.8122C18.854 59.7794 19.9379 60.4199 21.12 60.6639L21.6253 58.2155C20.9294 58.0719 20.2478 57.6971 18.4182 56.645L17.1719 58.8122ZM17.1361 58.7916L17.1718 58.8121L18.4183 56.645L18.3826 56.6245L17.1361 58.7916ZM15.6521 57.9354L17.1347 58.7908L18.384 56.6253L16.9014 55.77L15.6521 57.9354ZM15.6031 57.9072L15.6517 57.9352L16.9018 55.7702L16.8532 55.7421L15.6031 57.9072ZM12.0246 55.4218C12.8265 56.3211 13.9269 56.9393 15.6031 57.9071L16.8532 55.7421C15.0287 54.6886 14.3613 54.286 13.8905 53.758L12.0246 55.4218ZM10.513 52.7539C10.821 53.7396 11.3357 54.6495 12.0247 55.422L13.8904 53.7578C13.439 53.2518 13.1014 52.6552 12.8992 52.0082L10.513 52.7539ZM10.2192 48.3467C10.1846 50.3219 10.1505 51.5947 10.5131 52.7541L12.8991 52.008C12.6855 51.3247 12.6813 50.5328 12.7188 48.3904L10.2192 48.3467ZM10.2402 47.1256L10.2192 48.3471L12.7188 48.3901L12.7398 47.1686L10.2402 47.1256ZM9.69513 44.6171C10.0965 45.3748 10.2853 46.2271 10.2416 47.0835L12.7384 47.2108C12.8051 45.9039 12.5169 44.6033 11.9044 43.4469L9.69513 44.6171ZM9.50727 44.2812L9.70835 44.6414L11.8912 43.4226L11.6901 43.0625L9.50727 44.2812ZM7.73518 42.4001C8.47979 42.8465 9.0879 43.4883 9.49349 44.2559L11.7039 43.0879C11.0849 41.9165 10.1569 40.937 9.02056 40.2559L7.73518 42.4001ZM7.56799 42.3052C7.66519 42.3585 7.69442 42.375 7.71865 42.39L9.03709 40.266C8.94473 40.2086 8.85199 40.1581 8.77134 40.1138L7.56799 42.3052ZM7.40616 42.2158C7.47042 42.2516 7.52414 42.2811 7.56803 42.3052L8.77131 40.1138C8.72751 40.0898 8.67996 40.0636 8.6233 40.0321L7.40616 42.2158ZM6.33303 41.6193L7.40742 42.2165L8.62205 40.0314L7.54765 39.4341L6.33303 41.6193ZM2.6819 39.1721C3.50405 40.0621 4.61501 40.6638 6.33282 41.6191L7.54786 39.4343C5.68235 38.3968 5.00465 38.0022 4.51831 37.4757L2.6819 39.1721ZM1.1319 36.5377C1.4553 37.5152 1.98311 38.4126 2.68025 39.1703L4.51997 37.4775C4.06316 36.981 3.71729 36.393 3.50537 35.7525L1.1319 36.5377ZM0.756525 32.1584C0.759408 34.1276 0.751214 35.3881 1.13201 36.538L3.50527 35.7521C3.27984 35.0714 3.25964 34.2852 3.25652 32.1548L0.756525 32.1584ZM0.750529 30.4714L0.756531 32.1611L3.25652 32.1522L3.25051 30.4626L0.750529 30.4714ZM1.10909 26.0644C0.732674 27.22 0.747642 28.4876 0.750522 30.4688L3.25052 30.4652C3.2474 28.3169 3.26237 27.5257 3.48617 26.8387L1.10909 26.0644ZM2.66988 23.4126C1.96707 24.1734 1.4354 25.076 1.11065 26.0596L3.48461 26.8434C3.6974 26.1989 4.0458 25.6074 4.50633 25.1089L2.66988 23.4126ZM6.3473 20.9521C4.61608 21.9097 3.49117 22.5159 2.66634 23.4164L4.50987 25.105C4.99352 24.577 5.67528 24.1808 7.55739 23.1397L6.3473 20.9521ZM7.42997 20.3523L6.34658 20.9525L7.55811 23.1393L8.64151 22.5391L7.42997 20.3523ZM7.75904 20.1671L7.42291 20.3562L8.64857 22.5351L8.98469 22.3461L7.75904 20.1671ZM9.33499 18.6056C8.93436 19.2523 8.38432 19.7934 7.73112 20.1833L9.01261 22.3299C10.0094 21.7348 10.8488 20.9091 11.4602 19.9222L9.33499 18.6056ZM9.41966 18.4642C9.37231 18.5463 9.36081 18.5654 9.3514 18.5798L11.4438 19.9479C11.4989 19.8637 11.5471 19.7795 11.5849 19.714L9.41966 18.4642ZM9.51576 18.2991C9.47618 18.3663 9.44457 18.4211 9.41965 18.4643L11.5849 19.714C11.6096 19.6712 11.6363 19.625 11.6696 19.5684L9.51576 18.2991ZM10.2461 15.8338C10.2338 16.6971 9.98658 17.5407 9.53093 18.2741L11.6544 19.5934C12.3498 18.4743 12.7271 17.1869 12.7459 15.8694L10.2461 15.8338ZM10.2448 15.7383C10.2458 15.7702 10.2463 15.7871 10.2465 15.801C10.2467 15.8133 10.2465 15.815 10.2467 15.8113L12.7454 15.8919C12.7484 15.7985 12.7451 15.7099 12.7436 15.6602L10.2448 15.7383ZM10.24 15.4675C10.24 15.5864 10.2428 15.6759 10.2448 15.7383L12.7436 15.6602C12.7418 15.602 12.74 15.5451 12.74 15.4675H10.24ZM10.2192 14.2156L10.2402 15.4881L12.7398 15.4468L12.7188 14.1744L10.2192 14.2156ZM10.509 9.82501C10.1508 10.9823 10.1846 12.2465 10.2192 14.2169L12.7188 14.1731C12.6814 12.038 12.6851 11.2494 12.8972 10.5641L10.509 9.82501ZM12.0146 7.16095C11.3295 7.93112 10.8165 8.83847 10.5097 9.82251L12.8964 10.5666C13.0975 9.92173 13.4336 9.32716 13.8825 8.82249L12.0146 7.16095ZM15.609 4.65577C13.916 5.63474 12.8152 6.25831 12.0134 7.16224L13.8837 8.82121C14.3543 8.29061 15.0242 7.8818 16.8605 6.82001L15.609 4.65577ZM15.4689 4.7498L15.4539 4.76181L17.0156 6.71398L17.0306 6.70197L15.4689 4.7498ZM17.0872 3.79525L15.6227 4.64456L16.8768 6.80722L18.3414 5.9579L17.0872 3.79525ZM17.3281 3.68771L17.3191 3.69071L18.1095 6.06245L18.1185 6.05944L17.3281 3.68771ZM17.1092 3.78471L17.0961 3.79233L18.3505 5.95482L18.3637 5.9472L17.1092 3.78471ZM21.0841 1.90334C19.894 2.1519 18.8061 2.80036 17.1092 3.78472L18.3637 5.9472C20.2086 4.87694 20.8933 4.49714 21.5952 4.35053L21.0841 1.90334ZM24.1516 1.92512C23.1423 1.6992 22.0963 1.69179 21.0839 1.90337L21.5953 4.3505C22.2588 4.21185 22.9442 4.21671 23.6055 4.36476L24.1516 1.92512ZM28.1208 3.87722C26.4238 2.85731 25.3411 2.19323 24.1534 1.92553L23.6037 4.36435C24.3067 4.52281 24.9946 4.91512 26.833 6.01999L28.1208 3.87722ZM29.191 4.51871L28.1196 3.87647L26.8342 6.02073L27.9056 6.66297L29.191 4.51871ZM29.2928 4.58065C29.2647 4.56356 29.2328 4.5441 29.197 4.52235L27.8996 6.65933C27.9332 6.67973 27.9633 6.69807 27.9914 6.71522L29.2928 4.58065ZM29.4717 4.68707C29.4422 4.67126 29.41 4.65211 29.2928 4.58064L27.9914 6.71523C28.0899 6.77528 28.1873 6.83513 28.2911 6.89076L29.4717 4.68707ZM31.6522 5.29582C30.894 5.27167 30.1526 5.06636 29.49 4.69705L28.2729 6.88078C29.2841 7.44438 30.4155 7.7577 31.5726 7.79456L31.6522 5.29582ZM32.0122 5.29823L31.622 5.29523L31.6028 7.79515L31.9929 7.79816L32.0122 5.29823ZM32.3147 5.29462C32.2666 5.29763 32.2128 5.29819 32.0026 5.29819V7.79819C32.1825 7.79819 32.3267 7.79875 32.4707 7.78976L32.3147 5.29462ZM34.506 4.70015C33.8482 5.06687 33.1135 5.26898 32.3535 5.2928L32.4319 7.79158C33.5866 7.75538 34.7126 7.4473 35.7234 6.88368L34.506 4.70015ZM34.5424 4.67936C34.5273 4.68796 34.511 4.6972 34.4946 4.7066L35.7349 6.87723C35.7479 6.86979 35.7613 6.86219 35.7768 6.85336L34.5424 4.67936ZM34.8051 4.52536C34.6816 4.60035 34.6101 4.64093 34.5424 4.67939L35.7769 6.85333C35.8534 6.80986 35.9489 6.75562 36.1026 6.66232L34.8051 4.52536ZM35.8762 3.88687L34.8138 4.52011L36.0938 6.66758L37.1562 6.03434L35.8762 3.88687ZM35.8318 3.91458L35.8228 3.92058L37.2097 6.00064L37.2187 5.99463L35.8318 3.91458ZM35.9146 3.86328L35.8835 3.88191L37.167 6.0273L37.1981 6.00867L35.9146 3.86328ZM39.8267 1.94608C38.6501 2.20923 37.5761 2.86922 35.9146 3.86331L37.1981 6.00865C39.0065 4.92672 39.6815 4.54032 40.3724 4.38581L39.8267 1.94608ZM42.8828 1.92087C41.8736 1.71205 40.8315 1.7207 39.826 1.94625L40.3731 4.38564C41.032 4.23784 41.7149 4.23217 42.3762 4.36901L42.8828 1.92087ZM46.8667 3.79342C45.1643 2.81282 44.0712 2.1661 42.8821 1.92073L42.3769 4.36915C43.0784 4.51392 43.768 4.89358 45.6189 5.95974L46.8667 3.79342ZM48.35 4.64916L46.8675 3.79385L45.6182 5.95931L47.1007 6.81462L48.35 4.64916ZM51.9775 7.16282C51.1692 6.25623 50.0617 5.63303 48.3483 4.64816L47.1024 6.81562C48.9603 7.8835 49.6355 8.29269 50.1116 8.82663L51.9775 7.16282ZM53.4893 9.83128C53.1813 8.84404 52.6658 7.93409 51.9772 7.16247L50.1119 8.82698C50.5631 9.3326 50.9009 9.92888 51.1027 10.5758L53.4893 9.83128ZM53.7799 14.2111C53.8144 12.2568 53.8519 10.9871 53.4887 9.82936L51.1033 10.5777C51.3163 11.2566 51.3178 12.0397 51.2803 14.1669L53.7799 14.2111ZM53.762 15.4821L53.78 14.2066L51.2802 14.1714L51.2622 15.4468L53.762 15.4821ZM54.4734 18.2758C53.9611 17.4535 53.7124 16.4943 53.7606 15.5266L51.2637 15.4023C51.1901 16.879 51.5697 18.3428 52.3515 19.5977L54.4734 18.2758ZM54.5425 18.3951C54.5291 18.3715 54.5141 18.3452 54.4977 18.3166L52.3271 19.5569C52.3425 19.5838 52.3567 19.6087 52.3702 19.6324L54.5425 18.3951ZM54.6506 18.5795C54.6351 18.5562 54.6177 18.5271 54.5425 18.3951L52.3702 19.6324C52.4313 19.7397 52.4958 19.8542 52.5704 19.9662L54.6506 18.5795ZM56.2645 20.1818C55.6167 19.793 55.071 19.2554 54.6725 18.6136L52.5485 19.9322C53.1566 20.9117 53.9895 21.7321 54.978 22.3254L56.2645 20.1818ZM56.5764 20.358L56.2373 20.1659L55.0052 22.3413L55.3443 22.5333L56.5764 20.358Z" fill="#200077"/>
<defs>
<filter id="filter0_i_178_1577" x="0.749634" y="-1.58333" width="62.5009" height="62.4181" filterUnits="userSpaceOnUse" color-interpolation-filters="sRGB">
<feFlood flood-opacity="0" result="BackgroundImageFix"/>
<feBlend mode="normal" in="SourceGraphic" in2="BackgroundImageFix" result="shape"/>
<feColorMatrix in="SourceAlpha" type="matrix" values="0 0 0 0 0 0 0 0 0 0 0 0 0 0 0 0 0 0 127 0" result="hardAlpha"/>
<feOffset dy="-5"/>
<feGaussianBlur stdDeviation="1.66667"/>
<feComposite in2="hardAlpha" operator="arithmetic" k2="-1" k3="1"/>
<feColorMatrix type="matrix" values="0 0 0 0 0 0 0 0 0 0 0 0 0 0 0 0 0 0 0.25 0"/>
<feBlend mode="normal" in2="shape" result="effect1_innerShadow_178_1577"/>
</filter>
</defs>
</svg>
