<svg width="61" height="60" viewBox="0 0 61 60" fill="none" xmlns="http://www.w3.org/2000/svg">
<g filter="url(#filter0_i_314_1648)">
<path fill-rule="evenodd" clip-rule="evenodd" d="M58.1071 34.2857H53.8214V25.7143H58.1071C58.6755 25.7143 59.2205 25.4885 59.6224 25.0867C60.0242 24.6848 60.25 24.1398 60.25 23.5714C60.25 23.0031 60.0242 22.4581 59.6224 22.0562C59.2205 21.6543 58.6755 21.4286 58.1071 21.4286H53.8214V10.7143C53.8214 9.57764 53.3699 8.48756 52.5662 7.68383C51.7624 6.8801 50.6724 6.42857 49.5357 6.42857H38.8214V2.14286C38.8214 1.57454 38.5957 1.02949 38.1938 0.627628C37.7919 0.225765 37.2469 0 36.6786 0C36.1102 0 35.5652 0.225765 35.1633 0.627628C34.7615 1.02949 34.5357 1.57454 34.5357 2.14286V6.42857H25.9643V2.14286C25.9643 1.57454 25.7385 1.02949 25.3367 0.627628C24.9348 0.225765 24.3898 0 23.8214 0C23.2531 0 22.7081 0.225765 22.3062 0.627628C21.9043 1.02949 21.6786 1.57454 21.6786 2.14286V6.42857H10.9643C9.82764 6.42857 8.73756 6.8801 7.93383 7.68383C7.1301 8.48756 6.67857 9.57764 6.67857 10.7143V21.4286H2.39286C1.82454 21.4286 1.27949 21.6543 0.877628 22.0562C0.475765 22.4581 0.25 23.0031 0.25 23.5714C0.25 24.1398 0.475765 24.6848 0.877628 25.0867C1.27949 25.4885 1.82454 25.7143 2.39286 25.7143H6.67857V34.2857H2.39286C1.82454 34.2857 1.27949 34.5115 0.877628 34.9133C0.475765 35.3152 0.25 35.8602 0.25 36.4286C0.25 36.9969 0.475765 37.5419 0.877628 37.9438C1.27949 38.3457 1.82454 38.5714 2.39286 38.5714H6.67857V49.2857C6.67857 50.4224 7.1301 51.5124 7.93383 52.3162C8.73756 53.1199 9.82764 53.5714 10.9643 53.5714H21.6786V57.8571C21.6786 58.4255 21.9043 58.9705 22.3062 59.3724C22.7081 59.7742 23.2531 60 23.8214 60C24.3898 60 24.9348 59.7742 25.3367 59.3724C25.7385 58.9705 25.9643 58.4255 25.9643 57.8571V53.5714H34.5357V57.8571C34.5357 58.4255 34.7615 58.9705 35.1633 59.3724C35.5652 59.7742 36.1102 60 36.6786 60C37.2469 60 37.7919 59.7742 38.1938 59.3724C38.5957 58.9705 38.8214 58.4255 38.8214 57.8571V53.5714H49.5357C50.6724 53.5714 51.7624 53.1199 52.5662 52.3162C53.3699 51.5124 53.8214 50.4224 53.8214 49.2857V38.5714H58.1071C58.6755 38.5714 59.2205 38.3457 59.6224 37.9438C60.0242 37.5419 60.25 36.9969 60.25 36.4286C60.25 35.8602 60.0242 35.3152 59.6224 34.9133C59.2205 34.5115 58.6755 34.2857 58.1071 34.2857ZM10.9643 49.2857H49.5357V30V10.7143H10.9643V49.2857Z" fill="#320A9E"/>
<path d="M34.5357 34.2857H25.9643V25.7143H34.5357V34.2857Z" fill="#320A9E"/>
<path fill-rule="evenodd" clip-rule="evenodd" d="M36.6786 21.4286H23.8214C23.2531 21.4286 22.7081 21.6543 22.3062 22.0562C21.9043 22.4581 21.6786 23.0031 21.6786 23.5714V36.4286C21.6786 36.9969 21.9043 37.5419 22.3062 37.9438C22.7081 38.3457 23.2531 38.5714 23.8214 38.5714H36.6786C37.2469 38.5714 37.7919 38.3457 38.1938 37.9438C38.5957 37.5419 38.8214 36.9969 38.8214 36.4286V23.5714C38.8214 23.0031 38.5957 22.4581 38.1938 22.0562C37.7919 21.6543 37.2469 21.4286 36.6786 21.4286ZM25.9643 34.2857H34.5357V25.7143H25.9643V34.2857Z" fill="#320A9E"/>
<path fill-rule="evenodd" clip-rule="evenodd" d="M49.5357 49.2857H10.9643V10.7143H49.5357V30V49.2857ZM23.8214 21.4286H36.6786C37.2469 21.4286 37.7919 21.6543 38.1938 22.0562C38.5957 22.4581 38.8214 23.0031 38.8214 23.5714V36.4286C38.8214 36.9969 38.5957 37.5419 38.1938 37.9438C37.7919 38.3457 37.2469 38.5714 36.6786 38.5714H23.8214C23.2531 38.5714 22.7081 38.3457 22.3062 37.9438C21.9043 37.5419 21.6786 36.9969 21.6786 36.4286V23.5714C21.6786 23.0031 21.9043 22.4581 22.3062 22.0562C22.7081 21.6543 23.2531 21.4286 23.8214 21.4286Z" fill="#320A9E"/>
</g>
<path d="M24.1357 24.9143L18.65 30.4L24.1357 35.8858M35.1072 35.8858L40.5929 30.4L35.1072 24.9143M32.3643 20.8L26.8786 40" stroke="white" stroke-width="2.4" stroke-linecap="round" stroke-linejoin="round"/>
<defs>
<filter id="filter0_i_314_1648" x="0.25" y="0" width="60" height="64" filterUnits="userSpaceOnUse" color-interpolation-filters="sRGB">
<feFlood flood-opacity="0" result="BackgroundImageFix"/>
<feBlend mode="normal" in="SourceGraphic" in2="BackgroundImageFix" result="shape"/>
<feColorMatrix in="SourceAlpha" type="matrix" values="0 0 0 0 0 0 0 0 0 0 0 0 0 0 0 0 0 0 127 0" result="hardAlpha"/>
<feOffset dy="4"/>
<feGaussianBlur stdDeviation="2"/>
<feComposite in2="hardAlpha" operator="arithmetic" k2="-1" k3="1"/>
<feColorMatrix type="matrix" values="0 0 0 0 0 0 0 0 0 0 0 0 0 0 0 0 0 0 0.25 0"/>
<feBlend mode="normal" in2="shape" result="effect1_innerShadow_314_1648"/>
</filter>
</defs>
</svg>
